PathFileType	4	(X/Y/Z)	C:/Users/opensim2020/Desktop/walking_exp_matlab/subject06_walking15_straight_03.trc																																																																																																																																											
DataRate	CameraRate	NumFrames	NumMarkers	Units	OrigDataRate	OrigDataStartFrame	OrigNumFrames																																																																																																																																							
100	100	5	47	mm	100	2161	193																																																																																																																																							
Frame#	Time	LFHD			RFHD			LBHD			RBHD			C7			T10			CLAV			STRN			RBAK			LSHO			LUPA			LELB			LFRM			LWRA			LWRB			LFIN			RSHO			RUPA			RELB			RFRM			RWRA			RWRB			RFIN			LASI			RASI			LPSI			RPSI			LTHI			LKNE			LTIB			LANK			LHEE			LTOE			RTHI			RKNE			RTIB			RANK			RHEE			RTOE			*39			*40			*41			*42			*43			*44			*45			*46		
		X1	Y1	Z1	X2	Y2	Z2	X3	Y3	Z3	X4	Y4	Z4	X5	Y5	Z5	X6	Y6	Z6	X7	Y7	Z7	X8	Y8	Z8	X9	Y9	Z9	X10	Y10	Z10	X11	Y11	Z11	X12	Y12	Z12	X13	Y13	Z13	X14	Y14	Z14	X15	Y15	Z15	X16	Y16	Z16	X17	Y17	Z17	X18	Y18	Z18	X19	Y19	Z19	X20	Y20	Z20	X21	Y21	Z21	X22	Y22	Z22	X23	Y23	Z23	X24	Y24	Z24	X25	Y25	Z25	X26	Y26	Z26	X27	Y27	Z27	X28	Y28	Z28	X29	Y29	Z29	X30	Y30	Z30	X31	Y31	Z31	X32	Y32	Z32	X33	Y33	Z33	X34	Y34	Z34	X35	Y35	Z35	X36	Y36	Z36	X37	Y37	Z37	X38	Y38	Z38	X39	Y39	Z39	X40	Y40	Z40	X41	Y41	Z41	X42	Y42	Z42	X43	Y43	Z43	X44	Y44	Z44	X45	Y45	Z45	X46	Y46	Z46	X47	Y47	Z47
																																																																																																																																														
25	0.24	-822.6438	1655.41943	1322.2478	-815.68713	1652.80005	1453.72534	-956.9234	1602.81287	1332.19397	-948.06592	1605.32092	1461.2428	-957.81635	1453.57666	1396.25977	-1013.43964	1128.50671	1418.48523	-852.24988	1369.18054	1397.90564	-825.27679	1192.90955	1401.84814	-1040.06555	1294.41235	1485.66919	-908.20667	1396.97925	1235.50439	-945.47839	1196.77673	1168.61682	-972.31616	1086.89038	1161.99084	-974.86414	935.92328	1144.28662	-938.83264	813.12054	1191.98267	-996.25531	818.64136	1150.05139	-972.35461	730.8811	1154.9823	-890.72424	1413.13721	1557.12756	-937.01306	1222.58545	1656.28345	-934.14392	1100.10864	1670.67017	-917.06122	980.99011	1688.08569	-856.77344	843.37762	1652.85828	-907.81042	843.69769	1696.92725	-868.94843	768.43951	1695.83643	-836.41333	966.23627	1311.26318	-845.75916	963.66412	1531.38245	-995.06097	997.36481	1334.77844	-995.51691	991.1488	1502.42297	-903.58533	655.84961	1249.19983	-901.08466	491.05954	1271.922	-910.80634	235.87187	1287.97815	-889.73987	66.93949	1340.12988	-927.53632	53.18697	1387.03772	-742.74017	41.28276	1343.78418	-903.70032	625.0014	1593.92993	-894.86804	498.11676	1585.64331	-1088.73877	329.23331	1585.41992	-1239.73291	222.02989	1545.45789	-1277.65967	240.71718	1499.54565	-1198.12036	70.0289	1538.70642	-919.54083	1698.92542	1383.7063	NaN	NaN	NaN	NaN	NaN	NaN	NaN	NaN	NaN	NaN	NaN	NaN	NaN	NaN	NaN	NaN	NaN	NaN	NaN	NaN	NaN
26	0.25	-814.62695	1655.85278	1321.53308	-807.84137	1653.28015	1453.06921	-948.78027	1603.06348	1331.18799	-940.26221	1605.69446	1460.29724	-949.83508	1454.04053	1395.11084	-1005.44861	1128.72363	1417.32019	-844.42975	1369.45093	1397.27576	-817.42432	1193.20569	1401.11365	-1032.53027	1294.46667	1483.80188	-899.35004	1397.10864	1234.63281	-933.12653	1196.09363	1167.22693	-957.60657	1085.78748	1159.60999	-956.43591	934.85516	1141.66846	-917.44208	813.15436	1189.51929	-974.92212	817.02173	1147.1543	-948.5246	730.27618	1151.89685	-883.48462	1413.21631	1556.48938	-930.8064	1222.5625	1655.31421	-928.39581	1100.16846	1669.69336	-912.21692	980.98926	1687.3595	-852.7652	842.94348	1652.43579	-903.94812	843.48468	1696.23694	-865.59155	768.13953	1695.48621	-828.7746	966.40448	1310.28918	-837.51312	964.24792	1530.81848	-987.43359	997.73682	1334.26038	-987.64429	991.25409	1501.97083	-897.28424	655.99329	1248.62122	-897.29248	491.34784	1271.51526	-909.55756	236.1624	1288.08484	-889.84515	66.93378	1340.28186	-927.62451	53.19936	1386.89587	-742.71741	41.10426	1343.7533	-890.70984	625.73596	1593.76978	-878.56586	499.20877	1585.46875	-1071.68848	331.03061	1584.76062	-1222.21069	223.45474	1544.19995	-1261.14355	240.81416	1498.01233	-1176.03735	73.11754	1539.56995	-911.6358	1699.25574	1382.77136	NaN	NaN	NaN	NaN	NaN	NaN	NaN	NaN	NaN	NaN	NaN	NaN	NaN	NaN	NaN	NaN	NaN	NaN	NaN	NaN	NaN
27	0.26	-806.37994	1656.28101	1320.93408	-800.11127	1653.72791	1452.4458	-940.71655	1603.37634	1330.30139	-932.48157	1606.01855	1459.40564	-941.87927	1454.49915	1394.02466	-997.62958	1129.08228	1416.29504	-836.5528	1369.80457	1396.76282	-809.888	1193.40076	1400.37231	-1025.1012	1294.64014	1482.16455	-890.53754	1397.20435	1233.79187	-920.50635	1195.38599	1165.84082	-942.82465	1084.70972	1157.2179	-937.57446	933.8205	1139.12341	-895.86761	813.20667	1187.15991	-952.96979	815.58441	1144.40417	-923.93854	729.6825	1148.98291	-876.30994	1413.35449	1555.90662	-925.20667	1222.67981	1654.18604	-922.72882	1100.19446	1668.79346	-907.45435	980.97321	1686.49634	-848.8736	842.5141	1652.10327	-900.34711	843.40497	1695.55505	-862.43439	767.8313	1695.1709	-820.84027	966.82672	1309.46289	-830.25226	964.4809	1529.75049	-979.83905	998.09851	1333.68994	-979.83716	991.47241	1501.48767	-891.62201	656.40851	1248.57349	-893.44153	491.6214	1271.31897	-908.75867	236.38649	1287.83313	-889.87775	67.09045	1340.24646	-927.88367	53.44595	1386.61658	-742.66406	40.98936	1343.72302	-877.63458	626.67682	1593.52173	-862.35852	500.50519	1585.12646	-1053.99048	332.35043	1583.68628	-1203.68054	223.33836	1543.17053	-1243.4613	239.06761	1497.12915	-1152.50159	75.06139	1539.68555	-903.76349	1699.60376	1381.95667	NaN	NaN	NaN	NaN	NaN	NaN	NaN	NaN	NaN	NaN	NaN	NaN	NaN	NaN	NaN	NaN	NaN	NaN	NaN	NaN	NaN
28	0.27	-798.26538	1656.68188	1320.36755	-792.31049	1654.09753	1451.99561	-932.59955	1603.73376	1329.50085	-924.63879	1606.36682	1458.63879	-933.92828	1454.92322	1393.04395	-989.83783	1129.49023	1415.35242	-828.73224	1370.12842	1396.30127	-802.30554	1193.64685	1399.70581	-1017.66119	1294.93726	1480.73633	-882.01947	1397.23584	1233.08899	-907.69391	1194.71741	1164.33484	-927.76349	1083.73682	1155.00244	-918.52118	933.10303	1136.64587	-874.00159	813.65753	1184.8938	-930.84222	814.49634	1141.59814	-898.94122	729.57318	1146.07922	-869.07562	1413.47363	1555.42358	-919.24536	1222.7887	1653.1012	-917.44537	1100.39478	1667.70996	-902.84558	980.95367	1685.67786	-845.0271	842.11243	1651.85876	-896.89801	843.34003	1694.80652	-859.36194	767.76978	1695.09607	-813.31982	967.04102	1308.68127	-822.33258	965.10168	1529.06042	-972.17224	998.46887	1333.11023	-972.02301	991.80096	1500.94434	-885.84906	656.66681	1248.51099	-889.60114	491.87296	1271.1405	-907.27576	236.70206	1288.00293	-889.83307	67.2143	1340.3949	-927.80402	53.57914	1386.74255	-742.62036	40.76215	1343.6123	-864.35614	627.75439	1593.33167	-846.09094	501.98816	1584.57312	-1035.7854	332.9556	1582.58057	-1184.30225	221.88269	1542.21704	-1225.13733	236.35814	1496.09106	-1128.04065	76.06143	1540.06262	-895.75739	1699.97485	1381.1936	NaN	NaN	NaN	NaN	NaN	NaN	NaN	NaN	NaN	NaN	NaN	NaN	NaN	NaN	NaN	NaN	NaN	NaN	NaN	NaN	NaN
29	0.28	-790.1626	1656.96973	1319.93433	-784.44373	1654.4281	1451.51111	-924.48749	1604.15515	1328.78308	-916.6864	1606.70496	1457.99756	-926.13379	1455.3446	1392.11292	-982.16272	1129.93054	1414.44373	-821.12927	1370.38269	1395.80518	-794.76105	1193.93262	1399.10449	-1010.23456	1295.36401	1479.49841	-873.23358	1397.42139	1232.31726	-895.38507	1194.29236	1163.10046	-912.81262	1082.9895	1152.8761	-899.33862	932.61499	1134.28735	-851.79816	814.68945	1182.51196	-908.78711	813.81512	1138.94043	-873.91931	730.00018	1143.14929	-861.95544	1413.68042	1554.87183	-913.33258	1223	1652.02002	-911.94513	1100.5741	1666.62061	-898.27087	981.04102	1684.86597	-841.22198	841.81158	1651.69482	-893.52875	843.33624	1694.06494	-856.56659	767.61066	1694.83008	-805.84912	967.16644	1307.8761	-814.1532	965.9342	1528.54407	-964.52655	998.83148	1332.46521	-964.28473	992.27594	1500.35986	-880.00671	656.81219	1248.52747	-885.58612	492.05887	1271.12415	-905.91565	236.97702	1287.83691	-889.71167	67.34974	1340.49207	-927.78918	53.71719	1386.88586	-742.57562	40.68053	1343.52991	-851.24658	628.961	1592.93066	-829.99115	503.75739	1583.9054	-1017.23663	332.74066	1581.4834	-1164.39111	219.41211	1541.1698	-1206.13586	232.24297	1494.94385	-1102.61768	76.19147	1540.26013	-887.67041	1700.37415	1380.56348	NaN	NaN	NaN	NaN	NaN	NaN	NaN	NaN	NaN	NaN	NaN	NaN	NaN	NaN	NaN	NaN	NaN	NaN	NaN	NaN	NaN
